HIERARCHY
ROOT Hips
{
	OFFSET -0.179506 -22.333345 2.821913
	CHANNELS 6 Xposition Yposition Zposition Zrotation Yrotation Xrotation 
	JOINT LeftUpLeg
	{
		OFFSET 6.951974 -9.140623 -0.681533
		CHANNELS 3 Zrotation Yrotation Xrotation
		JOINT LeftLeg
		{
			OFFSET 3.427654 -37.519855 -0.449580
			CHANNELS 3 Zrotation Yrotation Xrotation
			JOINT LeftFoot
			{
				OFFSET -1.359570 -39.796059 -4.369333
				CHANNELS 3 Zrotation Yrotation Xrotation
				JOINT LeftToe
				{
					OFFSET 2.635814 -5.579078 11.928840
					CHANNELS 3 Zrotation Yrotation Xrotation
					End Site
					{
						OFFSET 0.000000 0.000000 0.000000
					}
				}
			}
		}
	}
	JOINT RightUpLeg
	{
		OFFSET -6.767048 -9.052170 -0.431982
		CHANNELS 3 Zrotation Yrotation Xrotation
		JOINT RightLeg
		{
			OFFSET -3.829005 -38.256897 -0.885003
			CHANNELS 3 Zrotation Yrotation Xrotation
			JOINT RightFoot
			{
				OFFSET 1.577377 -39.841461 -4.231180
				CHANNELS 3 Zrotation Yrotation Xrotation
				JOINT RightToe
				{
					OFFSET -2.537174 -4.814398 12.334795
					CHANNELS 3 Zrotation Yrotation Xrotation
					End Site
					{
						OFFSET 0.000000 0.000000 0.000000
					}
				}
			}
		}
	}
	JOINT Spine
	{
		OFFSET -0.253288 10.896323 -2.669631
		CHANNELS 3 Zrotation Yrotation Xrotation
		JOINT Spine1
		{
			OFFSET 0.548704 13.518043 0.109247
			CHANNELS 3 Zrotation Yrotation Xrotation
			JOINT Spine2
			{
				OFFSET 0.145701 5.292222 2.542457
				CHANNELS 3 Zrotation Yrotation Xrotation
				JOINT Neck
				{
					OFFSET -0.277840 21.387037 -4.285703
					CHANNELS 3 Zrotation Yrotation Xrotation
					JOINT Head
					{
						OFFSET 0.515184 6.496960 5.134897
						CHANNELS 3 Zrotation Yrotation Xrotation
						End Site
						{
							OFFSET 0.000000 0.000000 0.000000
						}
					}
				}
				JOINT LeftShoulder
				{
					OFFSET 7.884473 12.174932 -3.408961
					CHANNELS 3 Zrotation Yrotation Xrotation
					JOINT LeftArm
					{
						OFFSET 9.097692 3.046888 -0.886815
						CHANNELS 3 Zrotation Yrotation Xrotation
						JOINT LeftForeArm
						{
							OFFSET 25.961220 -1.277207 -2.745643
							CHANNELS 3 Zrotation Yrotation Xrotation
							JOINT LeftHand
							{
								OFFSET 24.923361 0.898606 -0.117091
								CHANNELS 3 Zrotation Yrotation Xrotation
								End Site
								{
									OFFSET 0.000000 0.000000 0.000000
								}
							}
						}
					}
				}
				JOINT RightShoulder
				{
					OFFSET -8.175920 11.883285 -3.861528
					CHANNELS 3 Zrotation Yrotation Xrotation
					JOINT RightArm
					{
						OFFSET -9.601238 3.255117 -0.914307
						CHANNELS 3 Zrotation Yrotation Xrotation
						JOINT RightForeArm
						{
							OFFSET -25.374195 -1.332924 -2.140099
							CHANNELS 3 Zrotation Yrotation Xrotation
							JOINT RightHand
							{
								OFFSET -25.529810 0.777228 -0.555919
								CHANNELS 3 Zrotation Yrotation Xrotation
								End Site
								{
									OFFSET 0.000000 0.000000 0.000000
								}
							}
						}
					}
				}
			}
		}
	}
}
MOTION
Frames: 7
Frame Time: 0.033333
17.897516 99.486198 42.557930 4.066632 -1.571433 123.736847 35.209690 13.220883 -14.071479 -9.593626 -11.650886 74.001926 -16.160944 12.528807 -7.725888 3.913844 -0.126459 -2.386562 -19.600829 -18.223738 -47.817113 8.423888 -4.810067 61.865118 6.834282 -3.269802 0.136506 4.162646 -0.024109 1.265535 0.606279 -1.166945 32.854286 -1.733700 -0.484842 -12.243961 11.037727 4.157920 -6.494187 -9.301352 -3.227862 -26.318309 12.746830 -1.032769 -25.832416 38.731220 -17.615176 -34.234308 16.780871 -13.288925 -35.964544 10.774139 -14.193515 -18.592536 74.586540 -16.611947 14.294043 -42.834080 18.483763 -32.303612 -4.031350 35.193462 -40.939840 -33.160484 23.861453 -31.967154 -82.816389 14.425282 11.151949 
17.494093 99.616211 43.542160 5.141107 -2.020160 119.800151 34.888552 13.914228 -14.218651 -11.794483 -13.497406 77.690451 -16.158270 12.914254 -6.235070 3.127877 -0.148451 -2.100042 -17.871314 -19.361166 -57.627164 8.160165 -6.260037 61.023805 6.544999 -2.690479 -3.042583 3.650476 -0.167505 1.175252 1.268268 -2.472363 38.122752 -1.893240 -0.171632 -13.409850 11.594001 4.106360 -6.254833 -9.748760 -3.252642 -24.186860 13.044116 -0.508522 -23.425677 37.847435 -19.910788 -34.452683 18.113410 -10.821612 -35.285582 9.073133 -13.825549 -18.095878 73.121787 -20.211968 17.128468 -43.444741 20.377894 -33.248916 -4.552798 35.177445 -41.864394 -32.869617 24.554042 -30.568498 -82.684445 18.281464 13.298125 
16.639849 97.684769 45.039852 7.137174 -2.851704 115.893697 34.003407 14.166765 -13.254954 -13.737007 -15.384554 79.175940 -16.660718 13.348569 -5.588684 2.622421 -0.068048 -1.916839 -16.517002 -19.094273 -65.781819 7.912921 -6.471947 57.125904 6.906607 -2.421993 -5.066529 3.359134 -0.379168 1.153356 1.808471 -3.832832 42.916148 -2.078708 0.075916 -14.021972 12.350032 3.926522 -6.004164 -10.080142 -3.687911 -21.632143 13.569886 0.297371 -21.621866 36.505237 -21.783742 -34.408790 19.144596 -8.701948 -34.424549 9.138340 -13.999939 -18.412571 72.039019 -22.916715 19.231256 -43.707724 21.667337 -34.049516 -4.267011 35.278671 -41.783782 -35.049197 25.990856 -31.141590 -83.213835 21.904681 14.822620 
16.604826 97.689262 47.775372 9.174219 -4.242667 113.881293 33.673232 14.623074 -11.522585 -15.090249 -16.945844 78.841586 -17.802485 12.976975 -5.691834 2.096137 -0.193656 -1.429966 -14.879802 -19.706451 -74.091276 7.575046 -7.820216 50.321857 7.396115 -1.686463 -6.151768 2.663670 -0.329092 1.253523 2.502616 -5.401564 47.186912 -2.665749 0.622509 -14.668703 13.242470 3.687066 -5.913222 -9.842818 -4.761887 -18.442789 14.120116 0.859412 -19.474106 35.729684 -22.893244 -34.699636 19.461019 -7.650074 -33.465110 9.163829 -14.426617 -17.674305 70.392811 -24.296846 20.562160 -44.308723 23.140652 -34.123850 -5.855083 32.968968 -42.214570 -34.866058 27.283027 -31.720634 -82.591747 23.148287 16.226226 
16.107124 97.458008 49.294853 12.751292 -7.288645 111.636407 32.611264 12.555621 -6.383020 -16.494220 -20.274260 78.178276 -17.976185 15.558608 -4.302041 1.381319 0.100414 -1.573537 -15.521995 -19.093391 -78.974676 5.918087 -8.732260 39.484008 9.896483 -4.953229 -6.229624 1.521916 -0.398440 1.484741 2.668995 -7.422146 49.791948 -3.557759 1.117140 -15.136402 14.898583 2.965906 -5.132340 -9.420754 -5.529068 -17.501175 14.721550 1.610761 -20.180745 33.920173 -24.489246 -34.030189 21.485660 -6.245748 -32.888162 7.267934 -15.125709 -17.591446 68.781521 -26.157802 23.016969 -45.949848 22.318496 -34.083300 -7.067759 31.519320 -42.091383 -33.573372 26.990643 -31.253352 -82.946688 24.909654 18.139646 
14.616645 97.161797 47.551144 15.586164 -5.198498 103.978943 33.963592 11.510494 -1.196055 -18.864491 -23.937395 77.677560 -19.878342 15.452404 0.262725 0.260924 -0.014753 -1.233961 -15.712546 -19.293437 -85.410973 5.730730 -8.987048 31.590230 10.574402 -4.674388 -7.625050 1.527463 -0.208147 1.621295 2.974239 -10.043235 54.388087 -4.354540 1.640180 -14.046375 15.149573 2.884107 -5.665735 -11.214112 -5.248586 -13.494130 14.507504 2.294597 -17.714071 35.214216 -26.495043 -34.801326 22.838380 -6.161298 -31.181429 3.649710 -13.230726 -15.987736 65.760628 -21.834011 21.675751 -46.485833 24.632683 -33.752319 -7.648454 30.906219 -42.003834 -29.695328 24.093755 -29.834458 -82.670784 24.667797 19.380454 
15.283625 96.571442 43.866848 18.589350 -3.595159 96.379246 33.524078 10.218365 1.860753 -16.243905 -25.295517 71.994243 -20.317630 16.577651 0.701853 0.238306 0.126965 -1.687934 -17.832852 -19.585710 -87.643211 4.329383 -9.138863 26.679313 11.456673 -7.194144 -9.889194 1.068393 -0.207101 1.719888 4.023355 -12.072213 56.129572 -4.773636 2.535303 -13.256286 15.779624 2.377017 -5.681072 -10.698533 -5.622848 -13.301819 14.271789 2.994917 -18.327793 35.110888 -28.154811 -34.643703 23.802796 -8.592898 -31.620621 1.150704 -12.811091 -16.684887 61.405502 -17.352833 18.442928 -46.000134 27.077043 -31.987496 -10.226546 28.572345 -41.219701 -24.210140 20.330017 -28.987566 -81.748119 23.387426 19.010303 
